<?xml version="1.0" standalone="no"?>
<!DOCTYPE svg PUBLIC "-//W3C//DTD SVG 20010904//EN"
 "http://www.w3.org/TR/2001/REC-SVG-20010904/DTD/svg10.dtd">
<svg version="1.0" xmlns="http://www.w3.org/2000/svg"
 width="173.000000pt" height="25.000000pt" viewBox="0 0 1728.000000 245.000000"
 preserveAspectRatio="xMidYMid meet">

<g transform="translate(0.000000,245.000000) scale(0.100000,-0.100000)"
fill="#002060" stroke="none">
<path d="M12336 2194 c-94 -140 -173 -257 -178 -260 -4 -3 -105 34 -223 81
-119 47 -221 83 -226 80 -5 -4 -244 -319 -531 -702 -287 -382 -528 -697 -535
-700 -8 -3 -75 6 -151 19 -75 14 -141 23 -147 21 -5 -3 -58 -59 -117 -126 -59
-67 -118 -133 -131 -147 -102 -113 -397 -450 -397 -454 0 -15 433 -1 885 27
l499 32 18 122 c9 68 29 167 43 220 35 130 114 356 129 365 6 4 107 8 224 8
l213 0 63 133 c35 72 82 175 106 227 181 406 324 641 419 689 32 17 39 28 58
88 30 92 98 199 153 241 41 32 48 34 105 30 33 -3 92 -17 130 -32 116 -46 447
-216 660 -338 218 -126 685 -405 699 -418 8 -8 -92 -156 -698 -1033 -136 -198
-245 -361 -242 -364 3 -3 34 7 68 22 321 141 504 208 706 261 75 19 156 42
179 50 61 22 73 54 74 206 0 135 11 182 49 209 14 10 79 30 145 43 299 62 359
76 367 88 19 30 41 117 88 348 85 420 123 555 172 608 12 12 30 22 40 22 11 0
68 -52 136 -122 152 -159 163 -170 322 -312 250 -222 584 -492 985 -796 454
-344 583 -444 703 -548 34 -30 64 -53 67 -50 2 2 -32 56 -77 119 -195 273
-676 955 -826 1168 -56 80 -109 146 -116 146 -8 0 -69 -73 -136 -163 -66 -89
-125 -162 -130 -162 -5 0 -73 93 -151 208 -79 114 -190 275 -248 357 -58 83
-170 243 -248 358 -79 114 -150 207 -158 207 -7 0 -224 -133 -481 -297 -258
-163 -476 -298 -485 -300 -16 -5 -111 62 -674 472 -159 116 -295 215 -302 219
-7 4 -61 -26 -133 -74 -66 -45 -127 -83 -135 -86 -8 -3 -109 51 -225 120 -117
69 -217 126 -223 126 -7 0 -88 -115 -181 -256z"/>
<path d="M5358 2252 l-48 -3 0 -690 c0 -429 -4 -689 -10 -689 -5 0 -24 26 -43
58 -19 31 -101 163 -182 292 -221 350 -477 758 -567 903 l-79 127 -235 0 -234
0 0 -985 0 -985 200 0 200 0 1 618 c1 339 1 652 1 695 -1 53 3 77 10 75 10 -4
99 -140 282 -438 46 -74 181 -292 301 -485 120 -192 233 -376 252 -408 l34
-57 237 2 237 3 3 983 c1 540 -1 982 -5 982 -98 4 -320 5 -355 2z"/>
<path d="M6362 2250 l-194 -5 1 -945 c1 -520 1 -962 1 -982 l0 -38 200 0 200
0 0 984 c0 542 -3 986 -7 988 -5 2 -95 1 -201 -2z"/>
<path d="M7568 2253 l-548 -3 0 -985 0 -985 573 2 572 3 0 175 0 175 -367 3
-368 2 0 225 0 225 325 0 325 0 0 175 c0 133 -3 175 -12 175 -7 0 -152 1 -323
3 l-310 2 0 225 0 225 368 3 367 2 0 174 c0 149 -2 175 -16 180 -9 3 -21 5
-27 4 -7 -2 -258 -4 -559 -5z"/>
<path d="M0 1265 l0 -986 453 4 c494 4 505 5 683 72 213 80 379 261 459 499
45 134 58 227 58 411 -1 351 -74 559 -267 751 -95 94 -208 158 -357 201 l-94
27 -467 3 -468 4 0 -986z m865 609 c202 -54 312 -194 350 -444 19 -122 19
-207 0 -325 -28 -175 -84 -284 -185 -364 -98 -78 -202 -100 -457 -101 l-163 0
0 624 c0 586 1 625 18 630 37 11 377 -4 437 -20z"/>
<path d="M2442 2113 c-248 -669 -335 -904 -417 -1128 -41 -112 -127 -344 -199
-540 -31 -82 -56 -153 -56 -157 0 -5 93 -7 207 -6 l207 3 71 200 71 200 418 0
419 0 33 -95 c18 -52 50 -143 70 -202 l37 -108 209 0 c114 0 208 2 208 5 0 3
-20 58 -44 123 -24 64 -69 185 -99 267 -30 83 -78 213 -107 290 -28 77 -67
183 -86 235 -20 52 -50 136 -69 185 -18 50 -58 158 -89 240 -30 83 -92 249
-136 370 -45 121 -84 228 -87 238 -5 16 -26 17 -258 17 l-252 0 -51 -137z
m331 -330 c31 -83 58 -160 149 -418 38 -110 80 -230 93 -267 l25 -68 -296 0
c-278 0 -296 1 -291 18 3 9 30 87 60 172 30 85 92 262 138 393 46 130 87 237
91 237 3 0 18 -30 31 -67z"/>
<path d="M8522 1268 l3 -983 513 -3 512 -2 0 180 0 180 -307 2 -308 3 -3 803
-2 802 -205 0 -205 0 2 -982z"/>
</g>
</svg>
